HIERARCHY
ROOT Hips
{
	OFFSET 0.000000 0.000000 0.000000
	CHANNELS 6 Xposition Yposition Zposition Zrotation Yrotation Xrotation 
	JOINT LHipJoint
	{
		OFFSET 0.000000 0.000000 0.000000
		CHANNELS 3 Zrotation Yrotation Xrotation
		JOINT LeftUpLeg
		{
			OFFSET 1.363060 -1.794630 0.839290
			CHANNELS 3 Zrotation Yrotation Xrotation
			JOINT LeftLeg
			{
				OFFSET 2.448110 -6.726130 0.000000
				CHANNELS 3 Zrotation Yrotation Xrotation
				JOINT LeftFoot
				{
					OFFSET 2.562200 -7.039590 0.000000
					CHANNELS 3 Zrotation Yrotation Xrotation
					JOINT LeftToeBase
					{
						OFFSET 0.157640 -0.433110 2.322550
						CHANNELS 3 Zrotation Yrotation Xrotation
						End Site
						{
							OFFSET 0.000000 0.000000 0.000000
						}
					}
				}
			}
		}
	}
	JOINT RHipJoint
	{
		OFFSET 0.000000 0.000000 0.000000
		CHANNELS 3 Zrotation Yrotation Xrotation
		JOINT RightUpLeg
		{
			OFFSET -1.305520 -1.794630 0.839290
			CHANNELS 3 Zrotation Yrotation Xrotation
			JOINT RightLeg
			{
				OFFSET -2.542530 -6.985550 0.000000
				CHANNELS 3 Zrotation Yrotation Xrotation
				JOINT RightFoot
				{
					OFFSET -2.568260 -7.056230 0.000000
					CHANNELS 3 Zrotation Yrotation Xrotation
					JOINT RightToeBase
					{
						OFFSET -0.164730 -0.452590 2.363150
						CHANNELS 3 Zrotation Yrotation Xrotation
						End Site
						{
							OFFSET 0.000000 0.000000 0.000000
						}
					}
				}
			}
		}
	}
	JOINT LowerBack
	{
		OFFSET 0.000000 0.000000 0.000000
		CHANNELS 3 Zrotation Yrotation Xrotation
		JOINT Spine
		{
			OFFSET 0.028270 2.035590 -0.193380
			CHANNELS 3 Zrotation Yrotation Xrotation
			JOINT Spine1
			{
				OFFSET 0.056720 2.048850 -0.042750
				CHANNELS 3 Zrotation Yrotation Xrotation
				JOINT Neck
				{
					OFFSET 0.000000 0.000000 0.000000
					CHANNELS 3 Zrotation Yrotation Xrotation
					JOINT Neck1
					{
						OFFSET -0.054170 1.746240 0.172020
						CHANNELS 3 Zrotation Yrotation Xrotation
						JOINT Head
						{
							OFFSET 0.104070 1.761360 -0.123970
							CHANNELS 3 Zrotation Yrotation Xrotation
							End Site
							{
								OFFSET 0.000000 0.000000 0.000000
							}
						}
					}
				}
				JOINT LeftShoulder
				{
					OFFSET 0.000000 0.000000 0.000000
					CHANNELS 3 Zrotation Yrotation Xrotation
					JOINT LeftArm
					{
						OFFSET 3.362410 1.200890 -0.311210
						CHANNELS 3 Zrotation Yrotation Xrotation
						JOINT LeftForeArm
						{
							OFFSET 4.983000 -0.000000 -0.000000
							CHANNELS 3 Zrotation Yrotation Xrotation
							JOINT LeftHand
							{
								OFFSET 3.483560 -0.000000 -0.000000
								CHANNELS 3 Zrotation Yrotation Xrotation
								JOINT LeftFingerBase
								{
									OFFSET 0.000000 0.000000 0.000000
									CHANNELS 3 Zrotation Yrotation Xrotation
									JOINT LeftHandIndex1
									{
										OFFSET 0.715260 -0.000000 -0.000000
										CHANNELS 3 Zrotation Yrotation Xrotation
										End Site
										{
											OFFSET 0.000000 0.000000 0.000000
										}
									}
								}
								JOINT LThumb
								{
									OFFSET 0.000000 0.000000 0.000000
									CHANNELS 3 Zrotation Yrotation Xrotation
									End Site
									{
										OFFSET 0.000000 0.000000 0.000000
									}
								}
							}
						}
					}
				}
				JOINT RightShoulder
				{
					OFFSET 0.000000 0.000000 0.000000
					CHANNELS 3 Zrotation Yrotation Xrotation
					JOINT RightArm
					{
						OFFSET -3.136600 1.374050 -0.404650
						CHANNELS 3 Zrotation Yrotation Xrotation
						JOINT RightForeArm
						{
							OFFSET -5.241900 -0.000000 -0.000000
							CHANNELS 3 Zrotation Yrotation Xrotation
							JOINT RightHand
							{
								OFFSET -3.444170 -0.000000 -0.000000
								CHANNELS 3 Zrotation Yrotation Xrotation
								JOINT RightFingerBase
								{
									OFFSET 0.000000 0.000000 0.000000
									CHANNELS 3 Zrotation Yrotation Xrotation
									JOINT RightHandIndex1
									{
										OFFSET -0.622530 -0.000000 -0.000000
										CHANNELS 3 Zrotation Yrotation Xrotation
										End Site
										{
											OFFSET 0.000000 0.000000 0.000000
										}
									}
								}
								JOINT RThumb
								{
									OFFSET 0.000000 0.000000 0.000000
									CHANNELS 3 Zrotation Yrotation Xrotation
									End Site
									{
										OFFSET 0.000000 0.000000 0.000000
									}
								}
							}
						}
					}
				}
			}
		}
	}
}
MOTION
Frames: 4
Frame Time: 0.008333
-4.421044 15.958312 1.238432 0.089819 19.015954 10.424364 9.877585 2.960092 -3.347083 -17.101275 -8.083570 23.961001 -2.191744 -1.831076 1.944121 -0.541033 10.715435 -18.035405 1.578800 -7.927200 -22.493300 -12.487154 -1.694086 -2.493167 17.071234 10.082387 -43.329850 -3.782468 -19.229961 46.988861 0.708011 -7.248111 -6.365657 -0.000800 -0.178100 0.489400 -0.918085 -1.571803 -1.044017 0.651772 -1.674397 -5.365833 -2.422993 -1.214836 -1.961522 3.665602 -3.401699 -16.335109 7.055436 -6.108217 19.100956 -1.064600 -0.177800 18.304100 7.839596 -8.062425 2.473399 -75.206255 31.843221 54.825670 115.923204 -49.243897 -78.652815 -1.172209 1.420904 -39.767930 3.955379 22.975922 1.427000 -7.125000 0.000000 0.000000 -24.151700 49.540600 -2.853300 -6.594912 10.574398 1.817248 -17.576141 35.840681 -8.898756 -93.398911 56.354405 -54.803569 -1.584536 0.082948 7.203787 -21.713128 10.467659 -3.900000 7.125000 0.000000 0.000000 4.897100 -18.603600 3.090300 
-4.481959 15.955266 1.334809 0.081912 19.368036 10.657024 9.862332 2.974089 -3.328440 -16.758024 -8.289755 23.828980 -2.184513 -1.835126 1.951212 -0.661380 11.134568 -17.753259 1.569800 -7.905900 -22.428500 -12.484131 -1.706460 -2.502855 17.350228 9.904934 -43.604030 -3.970411 -19.407929 47.654114 0.678242 -7.101344 -6.892378 -0.000200 -0.085200 0.234200 -0.979018 -1.628846 -1.066199 0.654734 -1.747834 -5.376332 -2.353108 -1.253635 -2.000870 3.668100 -3.475737 -16.366647 7.127882 -6.220494 19.037771 -1.010200 -0.224900 18.252400 7.837777 -8.064059 2.489612 -75.327823 33.089815 54.559466 115.597545 -49.269631 -78.324468 -1.182318 1.444590 -40.190820 4.287615 23.117017 1.547800 -7.125000 0.000000 0.000000 -23.926000 49.693100 -2.917600 -6.599928 10.566065 1.751358 -17.902473 35.229395 -10.860402 -89.197593 57.085017 -50.945288 -1.765821 0.155868 9.805512 -24.272503 11.283870 -4.769300 7.125000 0.000000 0.000000 3.254600 -17.444700 2.132700 
-4.539829 15.950371 1.427052 0.091847 19.656321 10.878256 9.849677 2.986764 -3.313187 -16.451464 -8.428119 23.708462 -2.177420 -1.837655 1.958836 -0.764043 11.473262 -17.484990 1.556700 -7.874400 -22.333100 -12.480980 -1.718276 -2.512070 17.609072 9.726232 -43.888941 -4.156793 -19.580826 48.306253 0.643240 -6.930210 -7.372587 0.000000 0.010000 -0.027600 -1.046955 -1.663952 -1.069895 0.653929 -1.793181 -5.385852 -2.285456 -1.276644 -2.056944 3.672055 -3.545584 -16.391085 7.191816 -6.327806 18.979733 -0.963400 -0.269000 18.211600 7.836156 -8.079118 2.512809 -75.462630 34.292289 54.365335 115.307684 -49.284381 -78.032011 -1.184248 1.475574 -40.594844 4.711753 23.236011 1.697900 -7.125000 0.000000 0.000000 -23.614100 49.838300 -2.963500 -6.605337 10.568189 1.646776 -18.183769 34.765931 -12.963488 -84.480806 57.738666 -46.841558 -1.918398 0.230931 12.292488 -26.824054 11.802991 -5.615200 7.125000 0.000000 0.000000 1.618300 -16.542800 1.091000 
-4.594653 15.943954 1.515053 0.106411 19.881123 11.079251 9.839252 2.999224 -3.301055 -16.167967 -8.497676 23.604153 -2.170006 -1.839344 1.967828 -0.848317 11.732762 -17.235383 1.545300 -7.846600 -22.249200 -12.477977 -1.729542 -2.520090 17.861891 9.554181 -44.176292 -4.341542 -19.749386 48.947491 0.603052 -6.734801 -7.819633 -0.000200 0.089000 -0.244600 -1.106756 -1.677915 -1.049471 0.650058 -1.811362 -5.395081 -2.225525 -1.285654 -2.129217 3.674885 -3.613355 -16.396846 7.244351 -6.431444 18.918118 -0.926200 -0.313300 18.161800 7.835210 -8.098161 2.536243 -75.618677 35.460408 54.242982 115.067030 -49.284859 -77.791005 -1.179446 1.510270 -41.018290 5.197133 23.321477 1.866200 -7.125000 0.000000 0.000000 -23.236600 49.963500 -2.985900 -6.610940 10.571238 1.539044 -18.451512 34.460658 -15.155790 -79.410814 58.169432 -42.661776 -2.024125 0.299826 14.522333 -29.115015 11.969689 -6.305000 7.125000 0.000000 0.000000 0.128300 -16.017400 0.087900 
